<!-- Generated by IcoMoon.io -->
<svg version="1.1" xmlns="http://www.w3.org/2000/svg" width="803" height="1024" viewBox="0 0 803 1024">
<g id="icomoon-ignore">
</g>
<path fill="#335cc1" d="M745.422 712.93c-13.379-82.427-10.512-165.092-3.823-247.757 6.212-75.259-6.929-146.934-42.527-213.592-64.747-120.892-168.676-196.629-291.24-250.385-3.823-1.672-9.796-1.434-13.618 0.239-99.867 43.244-187.311 103.451-253.491 191.134-59.013 77.887-86.249 166.048-80.276 263.765 4.301 64.030 9.079 127.821 4.062 192.090-6.212 78.365-18.636 154.818-64.269 221.715 12.424 19.113 35.838 40.377 66.419 59.49 58.774 36.793 123.042 61.163 188.984 81.232 15.53 4.778 31.059 8.84 46.589 13.14 2.628-140.722 25.086-278.1 41.333-416.194-5.734-2.15-10.99-3.823-16.246-5.734-58.057-20.547-115.158-43.722-166.525-78.843-13.379-9.079-16.007-20.786-16.963-35.36h10.273c73.825 1.434 146.695 10.512 219.565 22.219 11.707 1.911 23.892 4.539 35.36 3.106 57.579-6.929 115.158-15.291 172.737-21.98 25.564-2.867 51.606-2.628 77.409-3.823-1.911 23.892-1.672 26.52-19.83 37.032-31.298 18.158-62.835 35.838-95.567 51.128-27.237 12.902-56.146 22.219-84.338 33.21 16.246 137.855 38.466 274.755 41.094 414.283 2.15-0.239 4.062-0.239 5.973-0.717 69.525-18.397 137.139-41.572 200.452-75.737 36.315-19.352 70.242-42.049 96.045-76.215-33.687-47.783-48.5-101.54-57.579-157.447zM403.293 455.138l-0.717 0.478-0.717-0.478-28.909-18.636 29.148-386.329 0.478-6.212 0.478 6.929 27.476 385.374-27.237 18.874z"></path>
</svg>
