<!-- Generated by IcoMoon.io -->
<svg version="1.1" xmlns="http://www.w3.org/2000/svg" width="1034" height="1024" viewBox="0 0 1034 1024">
<g id="icomoon-ignore">
</g>
<path fill="#000" d="M516.853 851.274c-37.060 0-72.134-10.147-106.106-22.942-39.928-14.78-78.532-32.427-117.798-48.751-15.221-6.397-23.604-18.089-26.692-33.972-11.692-60.664-40.589-112.944-78.752-160.372-15.662-19.412-15.662-28.898 0.441-48.090 47.648-56.472 75.002-123.092 92.87-193.903 5.956-23.383 9.706-47.428 13.897-71.252 3.309-18.971 9.265-21.618 26.913-15 29.339 10.589 58.678 20.956 88.9 28.677 11.030 2.868 24.927-0.441 35.957-4.632 16.103-5.956 30.883-15.221 46.104-23.162 16.103-8.383 32.207-8.383 48.531 0 14.559 7.5 29.339 15 44.119 22.721 13.677 7.059 27.795 9.486 42.575 4.853 27.574-8.824 55.369-17.206 82.502-27.133 20.736-7.721 26.251-5.515 29.339 16.103 9.265 65.958 26.471 129.71 57.796 188.388 14.559 26.913 32.869 52.060 50.957 76.988 11.912 16.324 13.236 27.574 0.221 43.237-39.928 48.751-69.267 102.576-81.62 165.005-2.647 13.015-9.265 23.383-21.177 29.339-63.090 31.766-128.165 58.458-198.094 71.473-10.147 1.544-20.515 1.544-30.883 2.427z"></path>
<path fill="#000" d="M613.032 246.184c-7.5-2.427-17.868-4.853-27.354-9.265-14.78-6.618-28.898-14.559-43.016-22.28-17.206-9.265-34.192-9.265-51.399 0.221-14.78 8.162-29.78 15.883-45.001 23.383-13.897 7.059-28.457 9.044-43.898 5.074-56.913-14.118-110.959-34.854-156.181-73.237-18.53-15.662-33.972-35.295-48.531-54.928-12.133-16.324-7.059-33.31 10.368-44.119 34.854-21.839 69.928-43.457 105.003-64.634 16.986-10.368 30.001-7.721 46.325 8.383 75.885 74.782 202.285 84.708 288.758 22.721 10.147-7.28 19.192-15.883 28.236-24.486 15.221-14.339 28.236-16.545 45.663-5.735 34.854 21.177 69.487 42.575 104.121 64.193 17.206 10.809 20.956 27.133 10.368 44.56-21.839 36.398-53.384 62.428-89.561 82.944-36.619 20.956-75.664 35.516-116.695 45.001-4.632 0.662-9.265 1.103-17.206 2.206z"></path>
<path fill="#000" d="M659.798 1024c-14.339 0.221-22.28-7.28-29.56-16.765-19.633-25.368-43.898-44.34-75.002-53.604-54.707-16.103-111.4 3.088-149.122 50.737-16.986 21.177-24.486 23.604-50.296 15-56.472-18.53-109.194-44.781-157.946-78.973-14.118-9.927-15.883-21.398-4.632-34.192 20.956-23.824 37.942-50.296 50.957-79.414 5.956-13.456 15.883-16.986 28.677-10.147 71.031 37.722 147.798 58.458 225.668 76.105 13.677 3.088 29.56 1.765 43.457-1.324 69.487-15.442 138.092-34.854 202.726-65.958 5.956-2.868 11.692-6.177 17.648-9.044 12.133-5.735 22.059-2.868 27.354 9.265 13.456 30.221 30.883 57.355 52.722 82.282 9.927 11.25 7.721 23.383-4.632 31.986-51.84 36.398-107.871 64.193-168.314 82.502-1.765 0.441-3.53 1.103-5.294 1.324-2.206 0.221-4.191 0.221-4.412 0.221z"></path>
<path fill="#000" d="M41.913 70.59c0.221-14.78 6.177-24.265 16.765-31.104 8.383-5.294 16.986-10.147 25.589-15.221 15-8.824 19.633-7.28 24.045 9.486 11.030 40.81 27.795 78.973 51.178 114.047 21.398 32.207 47.428 60.002 80.738 80.076 9.927 5.956 13.456 13.897 11.471 24.927-2.868 16.986-5.515 33.972-8.603 50.957-3.53 19.192-14.339 24.045-31.986 14.339-69.708-38.163-116.033-97.062-146.034-169.417-9.044-21.839-14.559-45.222-21.618-68.164-1.103-3.75-1.103-7.941-1.544-9.927z"></path>
<path fill="#000" d="M993.779 69.708c-5.956 20.736-11.030 41.913-18.309 62.208-27.354 74.561-71.252 136.327-139.636 178.902-5.956 3.75-11.912 7.059-18.309 10.147-11.471 5.294-22.28 0.882-24.927-11.25-4.412-20.736-7.941-41.913-10.368-62.869-0.662-5.074 3.75-13.456 8.383-16.324 72.134-45.884 110.297-114.93 134.342-193.903 0.882-3.088 1.544-6.397 2.647-9.486 3.088-7.5 8.603-10.368 15.883-6.397 11.912 6.618 23.604 13.456 34.854 21.177 9.265 6.177 13.677 15.662 15.442 27.795z"></path>
<path fill="#000" d="M0 295.817c6.838-26.471 12.353-51.178 19.633-75.223 3.309-10.809 16.545-11.25 23.824-1.765 7.059 9.265 13.236 19.412 20.074 28.898 34.854 46.545 76.767 85.811 122.871 120.886 22.501 17.206 24.927 26.030 11.471 51.178-5.956 11.030-12.353 21.618-19.412 31.766-6.618 9.486-16.545 11.692-26.030 5.294-52.722-35.957-102.797-75.002-138.533-128.827-6.397-9.706-9.486-21.618-13.897-32.207z"></path>
<path fill="#000" d="M1033.927 295.597c-4.412 10.589-7.059 22.28-13.236 31.766-29.339 45.442-70.149 79.635-112.944 111.4-7.941 5.956-16.103 11.471-24.486 16.986-11.471 7.5-21.177 5.956-28.457-5.294-8.162-12.574-15.883-25.589-22.721-38.825-8.162-15.883-5.074-27.574 9.265-38.383 48.31-36.398 92.429-76.988 128.827-125.739 7.059-9.486 13.015-19.412 20.295-28.898s20.515-8.824 23.824 1.985c7.28 24.486 12.794 48.972 19.633 75.002z"></path>
</svg>
