<?xml version="1.0" encoding="UTF-8"?>
<svg id="Layer_1" xmlns="http://www.w3.org/2000/svg" version="1.1" viewBox="0 0 782 1024">
  <!-- Generator: Adobe Illustrator 29.7.1, SVG Export Plug-In . SVG Version: 2.1.1 Build 8)  -->
  <path d="M.3,89h100.3c58.9.2,116.8-7.4,171.3-30,36.9-15.3,71.9-35.6,107.2-54.5,8.2-4.4,13.3-6.9,22.3-.8,86.3,58.9,182.1,86.8,286.6,85.3,30.4-.4,60.9,0,93.2,0v21.9c0,118.9-1.6,238,.4,356.9,1.9,112.7-32,212.8-97.1,303.3-75.7,105.3-174,185.3-284.9,250.8-4.3,2.5-12.5,3.1-16.6.7-127.3-75.6-238.2-168.6-315.8-297.2C21.3,649.1,1.2,565.8.5,477.7c-.9-121.8-.2-243.6-.2-365.4v-23.3H.3Z"/>
</svg>