<?xml version="1.0" encoding="UTF-8"?>
<svg id="Layer_1" xmlns="http://www.w3.org/2000/svg" version="1.1" viewBox="0 0 345.7 347">
  <!-- Generator: Adobe Illustrator 29.7.1, SVG Export Plug-In . SVG Version: 2.1.1 Build 8)  -->
  <path fill="#000"
    d="M227.7,24l-6.6,14.1-139.8,5.9-4.4,25.3,149.9,143.2,94.7,20.8,24.2,113.8-112.6-24.9-21.6-94.4L69,76l-22.6,3.2-1.5,1.5-7.1,140.6-14,6.7,8-159.5L1.7,31l32,2L30.7,0l39.5,31,157.5-6.9ZM295.7,241l-70-15,15,70,19-34.5c11.4-7.8,24.9-12.5,36-20.5ZM311.7,249l-40.9,21.6-22.1,41.4,80,17-17-80Z" />
  <path fill="#000"
    d="M213.7,298c-21.8,3.3-43.9-.8-65-6.5-24.9-6.7-72.5-29.3-96-23-24.8,6.5-33.3,28.7-15.5,48.6,10.6,11.8,19.1,10.3,32.8,6.8s2.6-1.8,1.7.7c-8.6,24.5-40.3,22-56,5s-21.7-61.3,3-82c37.3-31.4,74.5-3.8,112.5,8.5s49.8,12.6,73,2l9.5,39.9Z" />
  <path fill="#000"
    d="M322.7,72c6.7-16,2-30.1-13-38.5-16.9-9.5-30.5-5.2-38.9,12.1-12.4,25.4,7.6,63.8,15.6,89.2,8.2,26.3,14.6,51.2,12.3,79.2l-41-8c17.7-42.6-7.1-81.4-20-120.5-6.1-18.5-9.4-31.3-.8-49.9,16-34.8,52.6-45.2,85-24.3,23.4,15.1,30.3,48.7.9,60.6Z" />
</svg>