<!-- Generated by IcoMoon.io -->
<svg version="1.1" xmlns="http://www.w3.org/2000/svg" width="1182" height="1024" viewBox="0 0 1182 1024">
<g id="icomoon-ignore">
</g>
<path fill="#000" d="M359.226 108.106c43.918-64.563 98.346-105.853 175.672-108.106 36.786-1.126 65.314 13.889 85.584 46.921 75.449 121.994 118.24 252.997 111.109 397.889-4.129 88.211-28.528 170.792-69.443 248.868-0.751 1.501-2.252 2.628-8.258 9.76 9.76-254.499-109.607-440.68-294.663-595.331z"></path>
<path fill="#000" d="M917.021 794.651c-8.258-61.185-13.513-120.493-24.774-178.674-14.639-77.701-47.296-148.645-93.466-212.457-14.639-19.894-16.891-40.54-19.144-62.686-7.883-75.073-28.528-146.768-59.683-215.836-1.501-3.378-2.252-6.757-3.378-10.886 31.155-15.765 63.437-21.396 96.845-15.765 26.276 4.504 46.545 18.393 61.185 41.666 76.95 122.745 120.493 254.874 113.361 400.891-4.129 88.211-28.152 170.792-69.067 248.868-1.126 1.877-1.501 3.754-1.877 4.88z"></path>
<path fill="#000" d="M295.789 1024c-99.848-24.023-175.296-75.073-224.094-162.909-36.786-66.44-55.179-138.886-70.569-212.457-5.255-25.525 6.757-46.921 25.15-63.437 41.666-38.663 91.965-47.672 146.393-40.164 11.636 1.501 10.51 9.009 10.51 17.642-0.375 63.812-1.877 127.625 0.751 191.062 3.003 73.572 31.531 139.261 68.692 201.947 13.138 21.771 27.026 43.167 43.167 68.317z"></path>
<path fill="#000" d="M1108.833 931.284c-6.006-52.927-9.76-104.727-17.642-155.402-8.633-55.179-27.026-107.73-51.425-158.029-3.378-6.757-6.006-15.765-5.255-22.897 16.516-121.994-3.378-238.733-49.173-352.094-1.126-3.003-1.877-6.006-3.003-10.51 34.909 0.375 63.437 9.76 82.956 39.413 60.809 94.217 101.349 196.317 113.361 308.176 12.762 123.496-10.51 240.61-69.818 351.343z"></path>
</svg>
