<?xml version="1.0" encoding="UTF-8"?>
<svg id="Layer_1" xmlns="http://www.w3.org/2000/svg" version="1.1" viewBox="0 0 346.8 346.4">
  <path fill="#000"
    d="M166.4.3l11.7-.3c128.9,4.3,210,143.3,146.7,257.7-69.2,125-253.5,115.9-310.3-15C-34.1,130.9,45.2,5.3,166.4.3ZM286.3,286.6c83.4-83.4,49.9-226.7-61.4-264.4C101.1-19.7-17.2,96.4,20.9,221.2c34.7,113.6,181.2,149.6,265.4,65.4Z" />
  <path fill="#000"
    d="M49.6,119c2.8,34.9,12.9,78.6,47.6,94.9,28.7,13.5,64.1,9.1,65,50.8s-4.4,41-11.7,47.8-23.1,1.1-32.2-2.7C31.3,274,.3,165.3,55.8,88.7,116.5,4.9,244,10.1,298.1,98.1c48.3,78.5,11.9,183.6-74.9,213.9s-20.4,8.3-27.9-1.1c-6-7.4-10.9-36.6-10.6-46.5,1.2-42.8,38-37.2,66.7-51.3,32.9-16.2,45.1-61.1,45.3-95.2-9,1.5-18.2,1.3-27.2,3.3-24,5.3-47.2,20.7-61.3,40.7.2-20.9-6.7-39.1-17.5-56.5-5.1-8.3-11.5-15.5-17-23.5-1.5-1-11.8,14.6-13,16.5-11.8,18.4-21.7,40.2-21,62.5-13.9-16.3-30.7-29.4-51.2-36.3-5.1-1.7-18.5-5.7-23.3-5.7h-15.5Z" />
  <path fill="#000"
    d="M173.3,168.2c3.4-.3,11.8,8,13.8,10.8,9.1,12.9,6.2,33-6,42.9s-8.1,5.2-14.4.4c-15.1-11.5-15.7-36.9-1.6-49.4,1.3-1.2,6.7-4.7,8.2-4.8Z" />
</svg>