<!-- Generated by IcoMoon.io -->
<svg version="1.1" xmlns="http://www.w3.org/2000/svg" width="636" height="640" viewBox="0 0 636 640">

  <path fill="#000"
    d="M66.085 583.409c29.785-5.026 61.245-9.494 92.333-16.196 12.286-2.606 24.572-9.122 35.369-16.009 24.2-15.451 29.785-38.906 17.313-64.596-9.122-18.802-23.642-33.322-39.093-46.911-29.226-25.689-62.362-45.98-96.987-63.665-21.408-10.983-43.56-20.663-65.526-31.088-2.42-1.117-4.654-2.42-9.494-4.84 24.014 5.212 45.422 10.983 67.016 13.776 20.105 2.793 40.768 4.654 60.873 2.793 35.742-3.351 50.448-25.503 43.56-61.059-6.329-32.019-20.477-61.059-36.114-89.168-37.976-68.877-83.584-132.542-129.564-196.207-2.047-2.979-4.281-5.957-5.213-10.239 3.537 2.979 7.26 5.771 10.797 8.749 60.128 51.006 121.373 100.337 188.016 142.781 33.694 21.407 68.132 41.885 107.784 51.192 5.399 1.303 10.983 2.234 16.567 2.606 26.993 2.048 44.491-12.844 47.842-40.582 2.979-24.386-1.117-48.214-6.516-71.856-2.047-8.936-4.467-17.871-5.212-27.551 1.303 2.793 2.792 5.584 4.096 8.563 19.919 43.56 42.257 85.631 70.366 124.537 15.637 21.594 32.763 42.257 55.288 57.336 5.399 3.537 11.169 6.702 17.313 8.936 19.733 7.446 36.673 2.42 49.331-14.334 15.265-20.291 20.477-44.305 23.828-68.691 3.164-22.897 4.281-46.166 6.516-72.042 6.143 24.945 11.914 47.283 17.313 69.622 15.451 66.457 28.482 133.473 31.274 201.792 1.861 44.305 2.793 89.168-11.542 131.797-22.152 66.643-69.808 105.922-138.313 119.325-63.479 12.472-127.144 8.191-190.809-0.373-76.882-10.424-152.088-28.668-227.109-48.028-1.117-0.186-2.234-0.931-1.303-0.372zM310.32 425.922c-0.559 0-1.117 0-1.676 0-1.117 8.563-2.606 17.126-2.979 25.689-4.096 96.987 82.839 172.193 178.523 155.067 61.059-10.983 117.278-62.92 123.421-136.637 4.84-57.894-25.689-120.628-87.121-149.296-54.171-25.317-108.901-3.164-128.261 51.937-5.584 16.009-5.957 32.205-1.303 48.586 3.723-3.351 7.074-6.143 10.239-9.122 16.567-14.52 35.742-21.966 58.080-20.105 28.482 2.234 44.491 26.434 35.742 53.613-4.467 14.147-13.776 24.759-25.317 33.508-21.78 16.196-47.097 18.988-72.601 16.94-35.742-2.792-63.851-18.802-79.861-52.309-2.979-5.584-4.654-11.728-6.887-17.871z"></path>
</svg>