<!-- Generated by IcoMoon.io -->
<svg version="1.1" xmlns="http://www.w3.org/2000/svg" width="1014" height="1024" viewBox="0 0 1014 1024">
<g id="icomoon-ignore">
</g>
<path fill="#15970f" d="M222.8 642.4l95.3-95.3 158.3 158.4-95.2 95.2 86.5 86.5-77.2 77.2-130.2-130.1-189.7 189.7-70.6-70.6 189.7-189.7-130.2-130.1 77.2-77.2 86.1 86z"></path>
<path fill="#15970f" d="M1005.4 18.6l-57.1 213.1 1.4 0.4-236.2 236.2-158.3-158.3 236.1-236.2 0.4 1.4 213.1-57.1 0.6 0.5z"></path>
<path fill="#15970f" d="M877.1 538.2l77.1 77.2-130 130.1 189.7 189.7-70.6 70.6-189.7-189.7-130.2 130.2-77.2-77.2 86.5-86.5-568.6-568.6 1.4-0.4-57-213.2 0.4-0.4 213.2 57.1 0.4-1.4 568.6 568.6 86-86.1z"></path>
</svg>
