<!-- Generated by IcoMoon.io -->
<svg version="1.1" xmlns="http://www.w3.org/2000/svg" width="636" height="640" viewBox="0 0 636 640">
  <path fill="#000"
    d="M368.226 0c-1.844-0.041-3.835 0.416-6.361 1.272l-279.85 82.173c-2.329 0.544-2.193 1.172-0.254 2.671l248.419 198.314c4.574 3.793 6.726 4.262 13.102 2.289l278.562-96.545c6.391-2.349 6.835-2.92 0.255-7.251l-244.486-178.839c-3.774-2.66-6.341-4.011-9.412-4.070zM336.299 24.041c5.573-0.041 11.456 0.571 17.553 1.908 24.393 5.348 41.692 20.254 38.542 33.199s-25.47 19.086-49.863 13.737c-24.393-5.348-41.692-20.127-38.542-33.072 2.362-9.709 15.591-15.691 32.308-15.773zM178.569 71.997c5.572-0.041 11.582 0.571 17.681 1.908 24.393 5.348 41.565 20.127 38.415 33.072s-25.47 19.214-49.863 13.865c-24.393-5.348-41.565-20.254-38.415-33.199 2.363-9.709 15.464-15.563 32.181-15.646zM417.573 84.208c5.572-0.041 11.583 0.699 17.681 2.036 24.393 5.348 41.565 20.127 38.415 33.072s-25.47 19.086-49.863 13.737c-24.393-5.348-41.565-20.127-38.415-33.072 2.363-9.708 15.464-15.691 32.183-15.773zM64.472 99.599c-0.511 0.13-0.676 0.928-1.017 2.544l-63.091 315.579c-0.735 3.282-0.606 4.096 2.417 6.742l239.647 206.581c5.574 5.327 6.745 5.259 7.505-1.272l69.834-320.035c1.463-4.36-0.043-6.759-2.544-8.777l-250.212-199.811c-1.288-1.086-2.033-1.656-2.544-1.527zM259.096 135.597c5.572-0.041 11.582 0.571 17.681 1.908 24.393 5.348 41.565 20.128 38.415 33.072s-25.47 19.086-49.863 13.738c-24.393-5.348-41.565-20.127-38.415-33.072 2.362-9.709 15.464-15.563 32.181-15.646zM500.658 146.155c5.573-0.041 11.583 0.571 17.681 1.908 24.393 5.348 41.565 20.127 38.415 33.072s-25.47 19.214-49.863 13.865c-24.393-5.348-41.565-20.254-38.415-33.199 2.363-9.708 15.464-15.563 32.182-15.646zM79.996 157.73c0.94-0.094 1.969-0.051 2.926 0 11.479 0.608 23.909 11.366 31.164 28.62 9.674 23.006 6.448 48.826-7.123 57.622s-32.43-2.688-42.102-25.694c-9.674-23.006-6.449-48.826 7.123-57.622 2.544-1.649 5.194-2.647 8.014-2.926zM342.164 199.197c5.573-0.040 11.583 0.571 17.681 1.908 24.393 5.347 41.565 20.127 38.415 33.072s-25.47 19.086-49.863 13.738c-24.393-5.348-41.565-20.127-38.415-33.072 2.362-9.709 15.464-15.563 32.181-15.646zM634.858 207.974c-0.535 0.11-1.287 0.298-2.163 0.636l-286.081 99.236c-5.827 2.399-5.652 3.378-6.614 7.759l-69.707 319.026c-0.237 4.697-1.967 6.834 3.562 4.325l281.886-105.323c5.469-2.617 6.518-3.076 7.123-8.395l73.141-314.57c0.606-2.216 0.459-3.006-1.145-2.671zM588.429 259.745c8.055 0.13 14.376 4.048 17.173 11.576 5.592 15.054-5.177 39.147-24.168 53.805s-38.928 14.291-44.52-0.763c-5.593-15.054 5.176-39.148 24.168-53.807 9.496-7.329 19.294-10.942 27.348-10.813zM241.681 287.347c11.624 0.297 24.304 11.223 31.672 28.748 9.674 23.006 6.576 48.826-6.996 57.622s-32.43-2.815-42.102-25.822c-9.674-23.006-6.449-48.699 7.123-57.494 2.545-1.649 5.193-2.647 8.014-2.926 0.764-0.079 1.515-0.146 2.289-0.126zM139.539 324.236c11.624 0.298 24.304 11.223 31.673 28.748 9.674 23.006 6.576 48.826-6.996 57.622s-32.43-2.815-42.102-25.822c-9.674-23.006-6.448-48.699 7.123-57.494 2.544-1.649 5.193-2.647 8.014-2.926 0.764-0.079 1.515-0.146 2.29-0.126zM38.923 360.741c0.939-0.094 1.969-0.048 2.926 0 11.479 0.607 23.782 11.493 31.037 28.747 9.674 23.006 6.576 48.699-6.996 57.494s-32.43-2.688-42.103-25.694c-9.674-23.006-6.449-48.826 7.123-57.622 2.545-1.649 5.194-2.647 8.014-2.926zM481.079 391.269c7.882 0.256 14.165 4.166 16.917 11.576 5.593 15.054-5.304 39.147-24.296 53.805-18.991 14.658-38.928 14.291-44.52-0.763s5.304-39.147 24.296-53.805c8.309-6.413 16.779-9.986 24.168-10.685 1.188-0.114 2.308-0.163 3.434-0.126zM195.26 493.413c0.94-0.094 1.969-0.048 2.926 0 11.479 0.607 23.909 11.366 31.164 28.62 9.674 23.006 6.449 48.826-7.123 57.622s-32.303-2.688-41.976-25.694c-9.674-23.006-6.576-48.826 6.996-57.622 2.545-1.649 5.194-2.646 8.014-2.926zM364.564 526.484c8.055 0.13 14.376 3.921 17.172 11.448 5.592 15.054-5.176 39.147-24.168 53.805-18.991 14.658-38.928 14.418-44.52-0.636s5.176-39.147 24.168-53.807c9.496-7.329 19.294-10.942 27.348-10.812z"></path>
</svg>