<!-- Generated by IcoMoon.io -->
<svg version="1.1" xmlns="http://www.w3.org/2000/svg" width="646" height="640" viewBox="0 0 646 640">
  <path fill="#000"
    d="M570.938 621.746c-134.549 54.949-330.256-18.254-364.881-168.986-12.984 4.516-26.157 8.28-38.765 13.549-8.28 3.576-12.984 1.694-18.254-4.892-21.641-26.721-43.658-53.255-65.675-80.164 9.786-12.42 18.065-23.334 25.216-32.555 30.485 8.468 59.653 16.748 88.821 24.652 9.033 2.446 18.442 3.952 27.663 5.081 5.457 0.752 7.527 2.822 9.032 8.468 3.199 12.42 8.092 24.652 12.608 37.636 8.844-4.893 15.807-8.468 20.7-11.291-3.952-17.877-7.151-34.813-11.479-51.561-0.564-2.446-5.834-4.704-9.221-5.457-25.028-5.457-50.621-9.409-75.272-15.807-37.636-9.786-73.578-23.146-101.806-51.749-10.35-10.538-18.254-22.582-20.888-39.518 64.922 31.426 130.597 55.137 202.67 60.782 0.564-4.328 0.941-8.092 1.318-12.044 0.564-3.952 0.941-8.092 1.506-12.232-18.065-3.011-35.566-5.269-53.067-8.844-41.588-8.28-82.046-21.452-119.494-41.211-26.345-13.926-45.916-36.507-59.089-63.981-1.129-2.258-1.317-5.081-2.634-9.597 74.331 45.916 152.238 74.331 238.612 81.67 1.129-8.656 2.070-16.372 3.011-24.275-20.888-3.576-41.588-6.21-62.099-10.538-44.599-9.409-87.88-24.087-127.209-47.045-29.921-17.501-53.443-42.341-63.605-77.154-0.376-1.506-0.564-3.011-0.941-5.834 82.046 54.761 170.868 88.256 267.592 105.569 1.506-8.28 3.199-15.995 4.704-24.463-19.194-4.328-37.824-8.092-56.266-12.796-70.379-18.442-137.183-45.727-197.401-86.939-15.054-10.35-25.028-24.652-26.345-43.657-0.188-1.882 0.376-3.576 0.564-6.398 106.51 65.675 226.381 90.514 346.251 121.564-28.415 44.411-44.222 92.584-47.233 144.711-3.011 51.749 4.704 102.182 16.748 152.99 7.527-1.506 14.114-2.822 20.888-4.328 1.129-0.188 2.258-1.129 2.822-1.506-4.328-25.404-9.409-50.244-12.608-75.272-6.774-54.196-3.952-107.827 17.877-158.824 6.962-15.995 16.184-31.050 24.84-46.104 5.269-9.221 12.044-17.501 19.006-27.474-14.302-3.764-27.851-7.151-42.152-10.914 6.21-7.528 12.42-14.114 17.501-21.452 17.501-24.84 34.625-49.867 52.126-74.707 2.258-3.199 6.774-7.151 10.35-7.151 71.508-0.941 143.017-1.318 214.525-1.694 1.129 0 2.446 0.376 4.516 0.752 0 5.081 0 10.162 0 15.054 0 38.577-0.188 77.154 0.188 115.731 0 6.963-2.070 10.162-8.656 12.796-92.584 37.259-171.056 93.714-234.096 171.432-20.512 25.404-20.512 25.404-10.35 56.454 23.522 72.261 57.207 138.877 109.332 195.143 19.571 21.076 41.964 39.141 68.498 54.384z"></path>
</svg>