<?xml version="1.0" encoding="UTF-8"?>
<svg id="Layer_1" xmlns="http://www.w3.org/2000/svg" version="1.1" viewBox="0 0 299.2 339.9">
  <!-- Generator: Adobe Illustrator 29.7.1, SVG Export Plug-In . SVG Version: 2.1.1 Build 8)  -->
  <path fill="#000"
    d="M113.1,13v35h75V13h21v37h34l-3.9,45.4,1.6,1.4,34.3,7.2-8,30-29.3-3.8-37.6,77.4,23,20.1-16.6,24.3-29.9-20.9-27,29-25.5-30h-1.4c-8.9,5.2-19.3,16.7-28,21.1-1,.5-2.3,1.5-3.5.8l-15-24.3,22.8-20.9-37.5-76.5-29.3,3.8-8.1-30,34.3-7.2,1.6-1.4-3.9-45.4h36V13h21ZM223.1,66H76.1c-4.3,65.6,27.8,125.5,73.5,170,45.9-44.2,77.9-104.5,73.5-170Z" />
  <path fill="#000"
    d="M119.8,249.1c1.2-.3,2,0,2.9.8l26.9,30.1,29-30.7,30.5,22.3c-17.9,24.2-37.6,46.9-58.6,68.4-23-20-41.9-44.2-60.3-68.4l29.6-22.4Z" />
  <path fill="#000" d="M79.1,36h-36l2,50-36,7.6C1.4,63.1-.5,31.4.1,0h77.5l1.5,1.5v34.5Z" />
  <path fill="#000" d="M299.1,0c.6,31.4-1.7,63-9,93.6l-36-7.6c2.5-16.5,2-33.3,2-50h-33V0h76Z" />
  <polygon fill="#000" points="284.1 150 245.6 230 217.1 204.4 245.1 144 284.1 150" />
  <polygon fill="#000" points="52.1 230 15.1 150 54.2 144.4 81.7 202 81.7 205 52.1 230" />
  <rect fill="#000" x="127.1" y="1" width="47" height="34" />
  <path fill="#000" d="M210.1,80c-1.3,51.4-24.9,99.8-60.5,136-35.7-36.4-59-84.3-60.5-136h121Z" />
</svg>