<?xml version="1.0" encoding="UTF-8"?>
<svg id="Layer_1" xmlns="http://www.w3.org/2000/svg" version="1.1" viewBox="0 0 713 1024">
  <!-- Generator: Adobe Illustrator 29.7.1, SVG Export Plug-In . SVG Version: 2.1.1 Build 8)  -->
  <defs>
    <style>
      .st0 {
        fill: #f85656;
      }

      .st1 {
        fill: #e20000;
      }
    </style>
  </defs>
  <path class="st1" d="M335.8,0s387.8,237,376.4,642.5c-11.4,405.5-392.6,381.1-392.6,381.1C319.6,1023.6,6.6,1007.4,0,683,0,683-12.2,509.4,211.2,335.8c31-24.3,57.1-54.2,77-88.1,33.2-56,66.7-143,47.6-247.7h0Z"/>
  <path class="st0" d="M335.8,0s384.5,232.6,376.4,644c-5.5,286.4-202.7,357.6-313.7,373.8-135.6,19.9-217.8-68.2-241.4-189.1-17.3-89.6,43.5-237.8,165.9-283.5C512.7,474.4,502,151.1,335.8,0h0Z"/>
</svg>