<?xml version="1.0" encoding="UTF-8"?>
<svg id="Layer_1" xmlns="http://www.w3.org/2000/svg" version="1.1" viewBox="0 0 772.8 803.3">
  <!-- Generator: Adobe Illustrator 29.7.1, SVG Export Plug-In . SVG Version: 2.1.1 Build 8)  -->
  <path d="M432.2,727.4c-59.6,7.8-125.8,5.3-176.6-30.6-47.1-33.3-69.8-89.1-113.3-126.3-19.4-16.6-40.7-23.8-62.2-36-22.8-12.9-65.3-42.1-75.9-65.9-17.4-38.9,23.4-82.3,50.2-106.3,22.6-20.2,49.3-35,75.4-49.9,14,15.8,21.4,37.9,26.7,58.1,2,7.8,6.6,38.2,10,42.2,3.9,4.6,6.4,4.4,11.7,4.8,18.9,1.5,40.3-.3,60,.8,26.2,1.4,52.5,3.9,78.1,10,0,10.4,0,21,3.4,30.9,5.6,15.9,14.1,32.4,20,48.8,14.5,39.8,24.4,105.3,64.9,125.2s53.7,12.1,86.9,11.3c50-1.2,27.3,43,2.7,61.6-17.2,13-41,18.3-61.9,21.1Z"/>
  <path d="M140.2,306c27.5-18.2,49.8-43.1,69.4-69.6,47.1-72.8,91-147.8,138.6-220.3,2.4-3.6,8.6-14.1,11.6-15.7s3.9-.6,5-.3l197.2,152.5c5.8,4.8,3.9,9.3-.4,14.3-15.1,17.6-36.6,35.6-53.3,52.4-37.3,37.5-73.9,75.8-111.3,113.2-19.3,19.3-44.4,39.6-61.7,59.9-6.3,7.4-9.7,15.5-14.1,23.9-34-7.4-68.7-10.6-103.4-11.9s-37.6.7-39.3-.4c-2.6-1.6-2.1-8-2.8-11.1-6.6-30.6-14.7-62.8-35.4-87.2Z"/>
  <path d="M543.9,524.4l141.5-104.1c3.1.2,3.1,3.7,2,6l-100.5,156,175.7-28.9c4.2-.8,7.6,3.5,3.3,6.4l-143.9,85,150.9,76.1-.8,2.9-155-8.5,50,85.5c-2.5,7-10.6-3.5-13.5-6.5-16.3-17-31.9-34.8-48-52-13.3-14.3-28.5-27.2-39.4-43.7l.3-2.3,45.6-10-52.4-28.1c-1-.5-1.7-1.2-1.7-2.4,0-3.5,45.9-33.9,51.1-39.5l-64.5,3c-1.2,0-2-.5-2.4-1.6-1.7-5,31.1-67.2,33.9-77.3-2.2-2.1-46.6,32.6-52.5,32.1s-2.3-1.6-2.8-3.2c-2.9-9.3-2.7-22.4-5.6-32.4-.4-1.5.6-1.7-2-1.5l-18.6,43c-1.4.2-3-2-3.8-3-7.1-9.3-11.1-21.9-18.6-30.9l-8.2,50.3c-.9,2.6-5.4,1.6-7.8,1.6l-36.1-198.5h3s69,115.5,69,115.5l55-169.5c.7-2,2.5-4.7,4.6-2.5l-7.6,183.1Z"/>
</svg>