<!-- Generated by IcoMoon.io -->
<svg version="1.1" xmlns="http://www.w3.org/2000/svg" width="742" height="640" viewBox="0 0 742 640">
  <path fill="#000"
    d="M497.898 69.858c-3.037 54.021-5.857 108.257-9.112 165.532 30.156-31.674 58.793-61.397 87.214-91.119 0.651 0.434 1.302 0.651 1.952 1.085-9.329 38.4-18.874 76.583-28.854 117.369 31.241-10.414 60.962-20.176 93.505-31.024-22.129 43.39-43.173 84.393-65.085 126.698 21.261-3.905 40.786-7.593 60.529-11.498 0.434 0.651 0.651 1.519 1.085 2.169-16.705 12.366-33.193 25.166-50.115 37.098-2.603 1.736-6.942 1.519-10.414 1.519-25.6 0.217-51.417 0-77.017 0.651-51.417 1.302-98.495 12.366-129.519 59.878-4.339-5.641-8.027-10.414-11.933-14.969-22.997-26.685-53.586-39.485-87.647-42.305-36.231-2.821-72.895-1.952-109.342-3.471-7.376-0.217-15.403-3.254-21.695-7.376-14.536-9.762-28.203-20.827-41.438-33.41 26.251 4.773 52.502 9.546 81.573 14.969-30.807-37.749-59.661-73.112-90.685-111.078 36.881 7.376 70.291 13.885 105.654 20.827-11.498-26.034-22.346-50.549-34.495-77.885 27.119 13.451 51.417 25.6 77.234 38.4-3.905-47.078-7.81-92.203-11.715-137.329 0.867-0.434 1.519-0.867 2.386-1.085 28.421 37.749 56.841 75.715 86.563 115.417 15.403-70.726 30.373-139.715 45.126-208.922 0.868 0 1.736 0 2.386 0 20.176 70.726 40.136 141.668 61.179 215.864 24.298-50.983 47.295-98.712 70.074-146.657 0.868 0.217 1.736 0.434 2.603 0.651z"></path>
  <path fill="#000"
    d="M45.343 459.933c21.261-14.752 41.221-28.854 61.397-42.739 2.386-1.736 6.074-2.169 9.112-2.169 41.221 0.651 82.224 0.868 123.444 2.386 17.139 0.651 34.712 2.821 51.2 6.726 31.241 7.593 52.502 27.553 65.085 56.841 4.339 9.979 9.329 19.526 15.403 32.109 6.074-11.281 11.498-19.959 15.403-29.288 16.488-40.569 47.946-61.179 89.817-64 41.654-2.821 83.742-1.953 125.614-2.603 0.651 0 1.519 0.217 2.169 0 24.298-7.376 42.956 3.471 60.746 18.224 10.197 8.461 21.695 15.403 34.061 24.298-29.288 10.414-57.057 20.176-84.827 29.939-77.885 27.336-155.769 54.888-233.871 82.224-4.773 1.736-10.847 2.169-15.403 0.434-103.485-36.014-206.969-72.461-310.454-108.691-2.603-0.868-4.99-2.169-8.895-3.688z"></path>
  <path fill="#000"
    d="M732.203 479.674c3.254 9.329 6.074 17.573 9.546 27.553-99.362 34.712-197.857 69.207-296.786 103.919 0 9.762 0 19.091 0 28.854-48.162 0-95.674 0-144.488 0 0-5.857-0.651-11.281 0.217-16.488 1.302-8.895-2.821-12.366-10.847-15.186-93.071-32.326-186.142-64.868-278.997-97.41-3.254-1.085-6.726-2.386-10.848-3.905 3.254-9.329 6.291-18.007 9.546-27.336 108.257 37.966 215.647 75.498 323.688 113.464-1.736 5.858-3.254 11.064-4.99 16.922 28.203 0 55.756 0 84.61 0-1.519-5.424-3.038-10.414-4.773-16.488 107.607-37.749 215.214-75.498 324.122-113.898z"></path>
</svg>