<?xml version="1.0" encoding="UTF-8"?>
<svg id="Layer_1" xmlns="http://www.w3.org/2000/svg" version="1.1" viewBox="0 0 1034 1024">
  <path fill="#335cc1"
    d="M516.9,851.3c-37.1,0-72.1-10.1-106.1-22.9-39.9-14.8-78.5-32.4-117.8-48.8-15.2-6.4-23.6-18.1-26.7-34-11.7-60.7-40.6-112.9-78.8-160.4-15.7-19.4-15.7-28.9.4-48.1,47.6-56.5,75-123.1,92.9-193.9,6-23.4,9.7-47.4,13.9-71.3,3.3-19,9.3-21.6,26.9-15,29.3,10.6,58.7,21,88.9,28.7,11,2.9,24.9-.4,36-4.6,16.1-6,30.9-15.2,46.1-23.2,16.1-8.4,32.2-8.4,48.5,0,14.6,7.5,29.3,15,44.1,22.7,13.7,7.1,27.8,9.5,42.6,4.9,27.6-8.8,55.4-17.2,82.5-27.1,20.7-7.7,26.3-5.5,29.3,16.1,9.3,66,26.5,129.7,57.8,188.4,14.6,26.9,32.9,52.1,51,77,11.9,16.3,13.2,27.6.2,43.2-39.9,48.8-69.3,102.6-81.6,165-2.6,13-9.3,23.4-21.2,29.3-63.1,31.8-128.2,58.5-198.1,71.5-10.1,1.5-20.5,1.5-30.9,2.4h0Z" />
  <path fill="#335cc1"
    d="M613,246.2c-7.5-2.4-17.9-4.9-27.4-9.3-14.8-6.6-28.9-14.6-43-22.3-17.2-9.3-34.2-9.3-51.4.2-14.8,8.2-29.8,15.9-45,23.4-13.9,7.1-28.5,9-43.9,5.1-56.9-14.1-111-34.9-156.2-73.2-18.5-15.7-34-35.3-48.5-54.9-12.1-16.3-7.1-33.3,10.4-44.1,34.9-21.8,69.9-43.5,105-64.6,17-10.4,30-7.7,46.3,8.4,75.9,74.8,202.3,84.7,288.8,22.7,10.1-7.3,19.2-15.9,28.2-24.5,15.2-14.3,28.2-16.5,45.7-5.7,34.9,21.2,69.5,42.6,104.1,64.2,17.2,10.8,21,27.1,10.4,44.6-21.8,36.4-53.4,62.4-89.6,82.9-36.6,21-75.7,35.5-116.7,45-4.6.7-9.3,1.1-17.2,2.2h0Z" />
  <path fill="#335cc1"
    d="M659.8,1024c-14.3.2-22.3-7.3-29.6-16.8-19.6-25.4-43.9-44.3-75-53.6-54.7-16.1-111.4,3.1-149.1,50.7-17,21.2-24.5,23.6-50.3,15-56.5-18.5-109.2-44.8-157.9-79-14.1-9.9-15.9-21.4-4.6-34.2,21-23.8,37.9-50.3,51-79.4,6-13.5,15.9-17,28.7-10.1,71,37.7,147.8,58.5,225.7,76.1,13.7,3.1,29.6,1.8,43.5-1.3,69.5-15.4,138.1-34.9,202.7-66,6-2.9,11.7-6.2,17.6-9,12.1-5.7,22.1-2.9,27.4,9.3,13.5,30.2,30.9,57.4,52.7,82.3,9.9,11.2,7.7,23.4-4.6,32-51.8,36.4-107.9,64.2-168.3,82.5-1.8.4-3.5,1.1-5.3,1.3-2.2.2-4.2.2-4.4.2h0Z" />
  <path fill="#335cc1"
    d="M41.9,70.6c.2-14.8,6.2-24.3,16.8-31.1,8.4-5.3,17-10.1,25.6-15.2,15-8.8,19.6-7.3,24,9.5,11,40.8,27.8,79,51.2,114,21.4,32.2,47.4,60,80.7,80.1,9.9,6,13.5,13.9,11.5,24.9-2.9,17-5.5,34-8.6,51-3.5,19.2-14.3,24-32,14.3-69.7-38.2-116-97.1-146-169.4-9-21.8-14.6-45.2-21.6-68.2-1.1-3.8-1.1-7.9-1.5-9.9h0Z" />
  <path fill="#335cc1"
    d="M993.8,69.7c-6,20.7-11,41.9-18.3,62.2-27.4,74.6-71.3,136.3-139.6,178.9-6,3.8-11.9,7.1-18.3,10.1-11.5,5.3-22.3.9-24.9-11.2-4.4-20.7-7.9-41.9-10.4-62.9-.7-5.1,3.8-13.5,8.4-16.3,72.1-45.9,110.3-114.9,134.3-193.9.9-3.1,1.5-6.4,2.6-9.5,3.1-7.5,8.6-10.4,15.9-6.4,11.9,6.6,23.6,13.5,34.9,21.2,9.3,6.2,13.7,15.7,15.4,27.8h0Z" />
  <path fill="#335cc1"
    d="M0,295.8c6.8-26.5,12.4-51.2,19.6-75.2,3.3-10.8,16.5-11.2,23.8-1.8,7.1,9.3,13.2,19.4,20.1,28.9,34.9,46.5,76.8,85.8,122.9,120.9,22.5,17.2,24.9,26,11.5,51.2-6,11-12.4,21.6-19.4,31.8-6.6,9.5-16.5,11.7-26,5.3-52.7-36-102.8-75-138.5-128.8C7.5,318.3,4.4,306.4,0,295.8h0Z" />
  <path fill="#335cc1"
    d="M1033.9,295.6c-4.4,10.6-7.1,22.3-13.2,31.8-29.3,45.4-70.1,79.6-112.9,111.4-7.9,6-16.1,11.5-24.5,17-11.5,7.5-21.2,6-28.5-5.3-8.2-12.6-15.9-25.6-22.7-38.8-8.2-15.9-5.1-27.6,9.3-38.4,48.3-36.4,92.4-77,128.8-125.7,7.1-9.5,13-19.4,20.3-28.9s20.5-8.8,23.8,2c7.3,24.5,12.8,49,19.6,75h0Z" />
</svg>