<!-- Generated by IcoMoon.io -->
<svg version="1.1" xmlns="http://www.w3.org/2000/svg" width="705" height="1024" viewBox="0 0 705 1024">
<g id="icomoon-ignore">
</g>
<path fill="#000" d="M379.019 1023.979c-43.565 0-87.131 0.106-130.696-0.106-6.652-0.021-13.622-0.489-19.87-2.508-14.047-4.548-20.72-16.3-20.805-34.491-0.298-71.894-0.744-143.787-0.723-215.702 0-26.777-7.629-50.727-22.782-72.659-57.358-82.966-114.609-166.037-171.818-249.13-16.427-23.844-16.364-42.248-0.234-66.581 40.696-61.353 81.393-122.706 122.111-184.037 15.556-23.419 32.387-29.093 59.249-19.806 67.155 23.228 134.373 46.264 201.336 70.023 11.476 4.080 22.484 10.349 32.6 17.214 12.623 8.564 18.085 21.676 16.449 36.956-2.083 19.615-9.669 36.935-24.29 50.536-14.663 13.643-33.003 15.981-50.77 10.626-35.15-10.541-70.278-21.74-104.217-35.617-34.47-14.090-54.149 6.12-62.203 35.15-3.634 13.070 4.42 26.394 18.85 33.301 22.016 10.519 44.245 20.571 66.368 30.878 26.479 12.347 45.351 31.24 55.53 59.44 18.744 51.853 38.784 103.261 58.271 154.859 0.871 2.316 1.573 4.718 2.656 6.928 4.314 8.819 12.857 12.56 21.081 9.351 7.906-3.081 10.966-10.562 7.672-20.486-9.946-29.858-20.125-59.61-30.22-89.426-4.76-14.068-9.669-28.073-14.217-42.227-2.423-7.544-7.927-17.256 0.51-22.186 4.888-2.848 14.982 0.043 21.251 3.251 37.785 19.339 75.166 39.464 112.633 59.398 27.202 14.472 44.713 11.922 66.708-9.903 13.325-13.218 26.543-26.564 40.038-39.613 5.44-5.249 11.773-14.408 19.169-9.096 4.888 3.528 6.652 14.153 6.482 21.506-1.488 63.584-19.466 122.727-51.195 177.534-10.009 17.299-22.484 33.258-34.619 49.261-11.731 15.471-18.85 32.153-18.829 51.79 0.106 65.178 0.106 130.335 0.043 195.513-0.021 28.732-11.157 39.953-39.783 40.016-43.905 0.128-87.832 0.043-131.738 0.043z"></path>
<path fill="#000" d="M460.518 455.843c-26.224-0.128-49.346-23.632-44.437-45.627 1.19-5.355 3.889-10.647 6.949-15.28 36.51-55.169 73.147-110.231 109.912-165.23 14.047-21.018 30.623-23.313 49.75-7.183 9.733 8.203 19.573 16.364 28.881 25.034 14.961 13.941 16.321 32.6 3.124 48.326-40.951 48.793-82.201 97.353-123.343 145.976-8.054 9.521-18.404 14.090-30.836 13.983z"></path>
<path fill="#000" d="M298.731 174.75c-3.634-1.041-9.521-2.231-15.046-4.378-23.355-9.074-46.647-18.319-69.875-27.712-21.464-8.692-26.118-23.653-13.197-42.822 18.574-27.542 37.275-54.999 56.125-82.349 13.048-18.935 30.772-22.59 50.493-10.498 21.974 13.473 43.905 27.074 65.709 40.866 18.191 11.518 21.719 28.668 9.287 46.137-14.961 21.018-30.347 41.738-45.542 62.585-8.819 12.071-21.145 17.129-37.955 18.17z"></path>
<path fill="#000" d="M552.537 516.665c-20.401-1.233-32.961-8.373-40.378-22.654-7.098-13.686-4.080-26.586 5.292-38.508 33.662-42.8 67.133-85.771 100.817-128.55 14.323-18.191 30.793-18.85 46.413-2.083 10.371 11.114 20.805 22.186 30.815 33.641 13.261 15.174 12.347 32.812-2.805 45.882-39.613 34.215-79.332 68.323-119.518 101.858-6.673 5.568-15.917 8.097-20.635 10.413z"></path>
<path fill="#000" d="M463.026 240.672c-1.934-0.298-4.888-0.255-7.459-1.211-25.459-9.457-51.088-18.51-76.165-28.881-12.942-5.334-16.406-18.446-8.416-29.986 18.085-26.139 36.616-51.981 55.615-77.483 9.287-12.475 25.289-15.577 39.039-7.863 22.165 12.453 44.075 25.353 65.667 38.763 14.132 8.777 16.661 23.122 6.8 36.467-13.856 18.765-28.179 37.169-42.545 55.53-7.969 10.179-19.020 14.217-32.536 14.663z"></path>
</svg>
