<?xml version="1.0" encoding="UTF-8"?>
<svg id="Layer_1" xmlns="http://www.w3.org/2000/svg" version="1.1" viewBox="0 0 340.9 342">
  <!-- Generator: Adobe Illustrator 29.7.1, SVG Export Plug-In . SVG Version: 2.1.1 Build 8)  -->
  <path fill="#000"
    d="M76.5,0c5,.6,16.1,4.7,21.5,6.5,49.9,17.5,90.9,52.4,123,93.5-13.7-37-38.5-70.7-73.3-90.2L127,0h30.5c.9,0,14.2,6.7,16.2,7.8,35.8,20.3,57.1,59.6,76.3,94.6l-112.7,65.5c-1.4.6-1.8,0-2.8-.9-3-2.7-11.7-20.7-15.1-25.9C92.2,99.2,48.9,60.4,0,47v-25c3.8,0,7.6,1.9,11.3,3.2,29,10.8,58.5,32,81.8,52.2,4,3.5,21.3,21.5,23.5,22.5s1.6.3,1.5-.5c-6.7-8.6-13.2-17.4-20.5-25.5-10.7-12-21.7-21.8-33.8-32.2-.9-.7-3.2-2-.2-1.8,34.8,19.8,65.2,46,93.5,74-3.9-8.3-9.7-16.8-15.2-24.3C117.3,56.2,84.7,28.3,46,12.5L4,0h72.5ZM193,116c-9.6-38.4-41.7-70.7-78-85l78,85Z" />
  <polygon fill="#000" points="241 124 302 230.4 220.6 276.9 159.1 171.5 241 124" />
  <path fill="#000"
    d="M211,298l113.7-64.9c1.3-.3,1.6.7,2.2,1.5,1.7,2.4,13.9,23.6,14,25.1l-113.4,67.2-16.5-28.9Z" />
  <path fill="#000"
    d="M170.5,219.2l14.4,23.5-.8,1.9-122.1,70c-3.6-7.2-10-14.9-13-22s-1.6-1.5-.5-2.6l122.1-70.8Z" />
  <path fill="#000"
    d="M30.7,292.1c.6-.1,1.1-.3,1.6,0l20.5,35.3-24.4,14.7c-2,0-3.2-3.2-4.3-4.7-6.2-9.3-11.6-20.9-17.1-30.7l23.6-14.5Z" />
  <polygon fill="#000" points="276 158 293.4 149.1 306.9 173.3 290.6 182.9 276 158" />
</svg>