<?xml version="1.0" encoding="UTF-8"?>
<svg id="Layer_1" xmlns="http://www.w3.org/2000/svg" version="1.1" viewBox="0 0 356 364">
  <!-- Generator: Adobe Illustrator 29.7.1, SVG Export Plug-In . SVG Version: 2.1.1 Build 8)  -->
  <path fill="#000"
    d="M105.1,72.9l-26.7-31.9C152.9-11.5,254.3,4.2,311,74.5c38.5,47.8,47.6,114.6,24.8,171.7-1.9,4.8-7.8,17.7-10.8,21.2s-1.3,1.9-2,1l-84.8-85.8c1.6-3.9,3.7-8.2,4.8-12.2,20-72.2-53.3-139.6-122.6-105.6-2.8,1.4-13.5,9-15.2,8.1Z" />
  <path fill="#000"
    d="M39.9,16.1l74.8,86.8,39-37.9,13.9,12.9-26.5,27.5,194,194,17,55.5-57.5-15L100.5,146l-25,25c-2.5-3.8-11.3-9.6-13.1-13s-.5-1.7.5-2.5l38-38L12,42.5l24.4-25.5,3.4-.8ZM113.3,141.7c5.5,6,12,4.7,19.2,4.3l171,171.1,9.5-9.5-172-173c1-8.6-1.5-15.8-10-18.9-16.4-6.1-29,13.8-17.6,26.1Z" />
  <path fill="#000"
    d="M187,353c-76,3.9-147.1-42.7-172-114.5S5.3,127.6,37,81l33.9,28.6c-6.6,11.1-14,21.8-19.1,33.7-40.4,94.1,27.8,193.8,124.8,207.6,3.4.5,8.6-1.3,10.4,2.1Z" />
</svg>