<?xml version="1.0" encoding="UTF-8"?>
<svg id="Layer_1" xmlns="http://www.w3.org/2000/svg" version="1.1" viewBox="0 0 512 512">
  <!-- Generator: Adobe Illustrator 29.7.1, SVG Export Plug-In . SVG Version: 2.1.1 Build 8)  -->
  <path d="M256,0C116.6,0,3.3,111.4,0,250,3,129.1,95,32,208,32s208,100.3,208,224,21.5,48,48,48,48-21.5,48-48C512,114.6,397.4,0,256,0ZM256,512c139.4,0,252.7-111.4,255.9-250-3,120.9-94.9,218-207.9,218s-208-100.3-208-224-21.5-48-48-48S0,229.5,0,256c0,141.4,114.6,256,256,256Z"/>
</svg>