<?xml version="1.0" encoding="UTF-8"?>
<svg id="Layer_1" xmlns="http://www.w3.org/2000/svg" version="1.1" viewBox="0 0 346.5 348.7">
  <!-- Generator: Adobe Illustrator 29.7.1, SVG Export Plug-In . SVG Version: 2.1.1 Build 8)  -->
  <path fill="#000"
    d="M39.7,26l42.4,29.1c11.5-7.2,21.9-15.7,33.8-22.2s16.2-8.7,18.3-8.8,1.9.3,3,1,16.9,16.4,17.4,17.6c-10.6,5.9-21.4,11.6-31.5,18.5s-16,10.5-15.5,12.5l215.7,152.8,23.2,120.8-120.6-23.9L73,108.1l-7.9,9.1c-7.8,11.4-15.4,23-20.6,35.9-1.5.4-1.7-.4-2.5-1-2-1.4-15.3-14.6-16.6-16.5s-.9-1.1-.5-2.5c.7-2.6,5.8-12.6,7.4-15.7,6.4-12.3,15-23.5,22.9-34.8l-29.2-41.5c-3.5-3.3-9.1,4.7-12.5,2.5S2.4,26.9,1.4,24.8C-4.4,13.2,9.3-1.4,21,.1c1.4.2,21.5,12.9,22.1,14,2,3.8-4.9,9.3-3.4,11.8ZM274.5,275.1l-19.5-49L94.9,84.2c-.9-.2-10.3,8.7-10.9,9.9s-.7,1.2,0,2l143.3,160.8,47.2,18.3Z" />
  <polygon fill="#000"
    points="241.5 112.1 261 146.1 275.5 97.1 293.5 153.1 313.5 65.1 319.6 175.1 345.5 148.1 345.5 277.1 334.6 219.5 241.5 152.6 241.5 112.1" />
  <path fill="#000"
    d="M140,227.1c.7,0,4,1.2,4.6,1.7l74.2,108,59.7,10.3c.2,1.7-2.3.9-3.5,1-25.9,1.1-54,.4-80.1,0s-5.3-1.1-7.9-1.1c-18.5-.3-37,.3-55.5,0l48-32-91-18,71-14-80-19,10.5-2,62.5-2-39-13c-.2-1.5,2.6-1.7,3.6-1.9,6.6-1,13.8-.8,20.4-2.1l-18-15.5c-.3-3.1,1.1-.5,1.5-.5,5.8,0,13.6-.7,19,0Z" />
</svg>