<!-- Generated by IcoMoon.io -->
<svg version="1.1" xmlns="http://www.w3.org/2000/svg" width="1018" height="1024"
  viewBox="0 0 1018 1024">
  <g id="icomoon-ignore">
</g>
  <path fill="#000"
    d="M105.736 933.454c47.656-8.042 97.992-15.19 147.732-25.913 19.658-4.17 39.316-14.595 56.591-25.615 38.72-24.721 47.656-62.25 27.7-103.353-14.595-30.083-37.827-53.315-62.548-75.058-46.762-41.103-99.779-73.568-155.179-101.864-34.252-17.573-69.696-33.061-104.842-49.741-3.872-1.787-7.446-3.872-15.19-7.744 38.422 8.34 72.675 17.573 107.225 22.041 32.168 4.468 65.229 7.446 97.396 4.468 57.187-5.361 80.717-40.805 69.696-97.694-10.127-51.23-32.763-97.694-57.782-142.669-60.761-110.204-133.734-212.067-207.302-313.931-3.276-4.766-6.85-9.531-8.34-16.382 5.659 4.766 11.616 9.233 17.275 13.999 96.205 81.61 194.197 160.54 300.826 228.449 53.91 34.252 109.012 67.016 172.454 81.908 8.638 2.085 17.573 3.574 26.508 4.17 43.188 3.276 71.186-20.551 76.547-64.931 4.766-39.018-1.787-77.143-10.425-114.969-3.276-14.297-7.148-28.593-8.34-44.081 2.085 4.468 4.468 8.935 6.553 13.701 31.87 69.696 67.611 137.010 112.586 199.26 25.019 34.55 52.421 67.611 88.461 91.737 8.638 5.659 17.871 10.723 27.7 14.297 31.572 11.914 58.676 3.872 78.93-22.934 24.424-32.465 32.763-70.888 38.124-109.906 5.063-36.635 6.85-73.866 10.425-115.267 9.829 39.912 19.062 75.653 27.7 111.395 24.721 106.332 45.571 213.557 50.038 322.867 2.978 70.888 4.468 142.669-18.467 210.876-35.444 106.629-111.693 169.475-221.301 190.92-101.566 19.956-203.43 13.105-305.294-0.596-123.011-16.679-243.341-45.869-363.374-76.845-1.787-0.298-3.574-1.489-2.085-0.596zM496.512 681.475c-0.894 0-1.787 0-2.681 0-1.787 13.701-4.17 27.402-4.766 41.103-6.553 155.179 132.542 275.509 285.636 248.107 97.694-17.573 187.644-100.672 197.473-218.62 7.744-92.631-41.103-193.005-139.393-238.874-86.674-40.507-174.241-5.063-205.217 83.099-8.935 25.615-9.531 51.528-2.085 77.738 5.957-5.361 11.318-9.829 16.382-14.595 26.508-23.232 57.187-35.146 92.928-32.168 45.571 3.574 71.186 42.294 57.187 85.78-7.148 22.636-22.041 39.614-40.507 53.613-34.848 25.913-75.355 30.38-116.161 27.104-57.187-4.468-102.162-30.083-127.777-83.695-4.766-8.935-7.446-18.764-11.020-28.593z"></path>
</svg>