<!-- Generated by IcoMoon.io -->
<svg version="1.1" xmlns="http://www.w3.org/2000/svg" width="981" height="1024"
  viewBox="0 0 981 1024">
  <path fill="#FFD700"
    d="M341.732 713.688c15.86-6.583 31.42-11.67 45.485-19.151 24.837-12.867 27.231-29.625 8.678-49.973-3.591-3.89-7.78-7.78-12.269-10.773-31.719-20.947-63.738-41.894-98.151-64.337-10.473 8.977-24.238 20.947-39.5 33.814 8.977 8.379 16.757 15.86 26.333 24.837-10.473 19.75-21.246 40.397-32.916 62.84-169.968-171.764-251.063-375.247-237.896-617.333 17.356 4.189 33.814 7.481 49.674 12.269 2.992 0.898 5.985 6.883 6.284 10.773 0.898 13.466 0.299 26.932 0.299 41.594 19.151 0 37.704 0 56.556 0 0-18.553 0.299-36.507 0-54.162-0.598-17.655 5.985-32.617 22.144-38.602 25.136-9.576 50.871-19.451 77.503-23.939 116.704-20.049 234.305-25.136 352.505-18.553 61.344 3.292 122.988 8.678 184.033 15.86 28.727 3.292 57.155 11.67 84.386 21.246 26.932 9.276 34.712 24.238 33.814 52.666-0.598 14.962-2.095 29.625-2.992 46.083 19.451 0 37.405 0 57.155 0 0-12.867-0.299-25.735 0.299-38.602 0.299-4.189 2.693-10.773 5.386-11.97 16.159-5.686 32.916-9.576 52.666-15.261 7.182 240.589-63.14 448.262-238.794 618.53-12.269-22.443-23.64-42.791-35.011-63.738 9.276-8.678 17.954-16.757 28.129-26.932-14.064-11.97-27.231-23.64-37.704-32.617-34.113 22.443-66.132 43.689-98.45 65.234-13.167 8.678-26.333 19.75-25.136 36.208 0.898 17.356 17.057 24.538 31.121 30.523 11.371 4.788 23.041 8.379 34.712 12.269-13.167 5.985-26.632 10.174-38.602 17.356-28.727 17.356-38.303 42.791-26.932 73.912 18.852 52.068 58.651 86.181 106.53 109.522 20.049 9.875 45.185 9.276 67.628 14.663 9.875 2.394 20.049 6.583 28.727 11.97 21.845 13.466 21.246 40.697-2.693 49.973-25.136 9.576-51.469 17.057-78.102 21.246-88.874 13.765-178.646 14.962-268.119 11.97-66.431-2.095-133.162-5.087-197.499-23.341-8.379-2.394-17.057-5.686-24.538-9.875-22.144-12.867-22.443-40.098 1.197-50.572 20.049-8.977 41.894-17.057 63.439-19.151 40.996-3.89 69.723-26.932 96.355-54.162 14.064-14.364 26.632-31.121 35.61-49.075 21.545-42.791 6.883-77.802-38.004-95.757-8.079-2.992-15.86-5.087-23.341-7.481zM163.684 76.605c13.765 3.89 25.136 7.78 36.807 10.473 74.212 16.458 149.62 21.246 225.328 23.041 65.833 1.197 131.666 0.898 197.199-3.292 53.564-3.292 106.53-12.568 159.794-20.049 11.072-1.496 21.545-6.284 36.208-10.473-117.601-49.674-558.382-46.981-655.336 0.299zM60.746 196.002c13.466 135.257 54.761 256.15 141.84 361.781 11.97-12.568 21.845-23.939 32.916-33.814 7.481-6.883 7.78-11.371 2.095-19.75-14.663-22.443-29.326-44.886-41.894-68.526-37.704-71.818-59.549-149.022-72.416-228.919-0.598-3.89-5.386-10.174-8.678-10.174-17.356-1.197-34.712-0.598-53.863-0.598zM778.025 551.799c82.59-105.033 128.973-222.635 141.84-355.797-15.86 0-29.625 1.197-42.791-0.299-15.86-2.095-19.151 5.686-20.947 18.852-10.473 70.621-29.924 138.847-61.643 202.885-16.458 33.216-35.909 64.935-54.761 98.45 11.67 10.473 24.238 22.443 38.303 35.909z"></path>
</svg>