<?xml version="1.0" encoding="UTF-8"?>
<svg id="Layer_1" xmlns="http://www.w3.org/2000/svg" version="1.1" viewBox="0 0 345.1 348">
  <!-- Generator: Adobe Illustrator 29.7.1, SVG Export Plug-In . SVG Version: 2.1.1 Build 8)  -->
  <path d="M147.1,0l-47.3,14.2c-29.8,13.2-63.2,30.3-76.7,61.8,12-12.3,24.5-22.5,39.7-30.8C112.3,17.8,181.6,7.4,237.5,14.1c41.8,5,123.5,27.7,104.9,85.7-17.4,54.5-112.8,71.2-161.8,73.2s-13.6.3-20,0c-1.2,0-3.7.8-3.5-1,54.8-6.2,119.1-20,155-65.5,3.3-4.2,7.4-9.4,9-14.5-14.8,15.9-33.5,28.2-53.3,37.2-59.3,26.7-140.8,34.3-203.2,14.8C-22.1,117-19.8,54.2,61.2,20.5,87.9,9.4,118.3,2.7,147.1,0ZM62.2,84c.9.8,13.9-8.4,16-9.5,53.2-29.4,129.3-27,185.5-7.5,10.4,3.6,20.8,7.9,30,14,11.7-24.8-18.4-39.5-37.7-45.2-47.4-14.1-124.2-7.2-167.1,18.5-11.4,6.8-23,16.6-26.7,29.8ZM159.9,66.3c-29.9,1.8-62.9,9.7-87.1,27.9s-7.9,4-5.5,8.2,16.8,14.9,21.6,15.5,18.4-9.2,22.6-11c38.7-16.7,87.8-18.2,128.7-9.3s18.3,5.1,27.3,8.2l18.6-13.2c-36.6-20.8-84.3-28.7-126.2-26.2ZM249.1,115c-1.5-2.5-6.2-2.8-9-3.5-33.9-8.5-100.7-8.3-130.7,11.3-1,.6-1.8-.1-1.3,2.2,46.8,9.6,96.1,6.1,141-10Z"/>
  <path d="M303.2,165c-31.2,32.8-74.4,58.8-119,68.5-42.3,9.2-90.9,4.2-120-31-.9-1.1-2.4-1.6-2-3.5,7.8,3.7,15.6,7.1,24,9.5,22.3,6.3,44.3,6.6,67.4,4.4l39.6-8.9-36.5-1c-39.3-3.7-77.1-17.4-106.5-44,18.6,7.9,37.3,14.9,57,19.5,44.9,10.4,94.8,12.4,140.2,4.2,19.3-3.5,38.1-9.5,55.8-17.7Z"/>
  <path d="M221.2,234c-25.3,29.9-84.5,52-121,33.5s-20.3-15.9-20.5-26.5c43.8,24.8,98,12.6,141.5-7Z"/>
  <path d="M158.2,317l-13.1,30.9-29.2.2c-11.9-16.6-21.8-35.1-26.7-55,19.3,16.5,42.6,29.3,69,24Z"/>
  <path d="M98.2,282c25.8,9.1,53.7,6.6,79-3-11,40.2-57.8,26-79,3Z"/>
</svg>