<svg xmlns="http://www.w3.org/2000/svg" width="768" height="768"><path d="M576 384c0-53.024-21.536-101.056-56.224-135.776S437.024 192 384 192s-101.056 21.536-135.776 56.224S192 330.976 192 384s21.536 101.056 56.224 135.776S330.976 576 384 576s101.056-21.536 135.776-56.224S576 437.024 576 384m-64 0c0 35.36-14.304 67.296-37.504 90.496S419.36 512 384 512s-67.296-14.304-90.496-37.504S256 419.36 256 384s14.304-67.296 37.504-90.496S348.64 256 384 256s67.296 14.304 90.496 37.504S512 348.64 512 384M352 32v64c0 17.664 14.336 32 32 32s32-14.336 32-32V32c0-17.664-14.336-32-32-32s-32 14.336-32 32m0 640v64c0 17.664 14.336 32 32 32s32-14.336 32-32v-64c0-17.664-14.336-32-32-32s-32 14.336-32 32M112.416 157.664l45.44 45.44c12.512 12.512 32.768 12.512 45.248 0s12.512-32.768 0-45.248l-45.44-45.44c-12.512-12.512-32.768-12.512-45.248 0s-12.512 32.768 0 45.248m452.48 452.48 45.44 45.44c12.512 12.512 32.768 12.512 45.248 0s12.512-32.768 0-45.248l-45.44-45.44c-12.512-12.512-32.768-12.512-45.248 0s-12.512 32.768 0 45.248M32 416h64c17.664 0 32-14.336 32-32s-14.336-32-32-32H32c-17.664 0-32 14.336-32 32s14.336 32 32 32m640 0h64c17.664 0 32-14.336 32-32s-14.336-32-32-32h-64c-17.664 0-32 14.336-32 32s14.336 32 32 32M157.664 655.584l45.44-45.44c12.512-12.512 12.512-32.768 0-45.248s-32.768-12.512-45.248 0l-45.44 45.44c-12.512 12.512-12.512 32.768 0 45.248s32.768 12.512 45.248 0m452.48-452.48 45.44-45.44c12.512-12.512 12.512-32.768 0-45.248s-32.768-12.512-45.248 0l-45.44 45.44c-12.512 12.512-12.512 32.768 0 45.248s32.768 12.512 45.248 0"/></svg>