<!-- Generated by IcoMoon.io -->
<svg version="1.1" xmlns="http://www.w3.org/2000/svg" width="668" height="640" viewBox="0 0 668 640">
<g id="icomoon-ignore">
</g>
<path fill="#c68533" d="M667.219 465.608c-8.671 19.993-71.539 159.699-141.152 170.538-185.472 25.532-526.067-79.729-526.067-79.729v0 0l0.482-0.722c0.241-0.482 0.722-1.204 1.204-1.927l1.686-3.131c0.241-0.241 0.241-0.482 0.482-0.722l8.431-14.693 296.274-508.965c0 0 1.927-2.649 3.373-4.577 0 0 0 0 0 0 0.241-0.482 0.722-0.722 0.964-1.204s0.723-0.723 0.964-1.204c0.723-0.964 1.686-1.686 2.649-2.649 1.204-1.204 2.409-2.168 3.613-3.131 7.226-6.262 14.693-13.489 18.306-13.489 6.262 0 23.846 16.861 30.591 25.773 31.072 41.43 276.522 404.185 297.719 435.258 0.964 1.204 1.204 3.131 0.482 4.577z"></path>
<path fill="#7f5322" d="M268.574 438.148c-179.933 0.241-208.114 61.904-268.574 118.269 0 0 0.241-0.241 0.482-0.722s0.722-1.204 1.204-1.927c0.482-0.722 1.204-1.927 1.686-3.131 0.241-0.241 0.241-0.482 0.482-0.722l2.168-3.613c1.686-3.131 3.854-6.744 6.504-11.080l296.274-508.965c0 0 1.927-2.649 3.373-4.577 0 0 0 0 0 0 0.723-0.722 1.204-1.445 1.927-2.168 0.722-0.964 1.686-1.686 2.649-2.649 1.204-1.204 2.409-2.168 3.613-3.131 0 0 0 0 0 0 1.445 0 26.496 3.372 70.094 114.174 59.977 153.677 71.539 309.763-121.882 310.244z"></path>
</svg>
