<!-- Generated by IcoMoon.io -->
<svg version="1.1" xmlns="http://www.w3.org/2000/svg" width="461" height="640" viewBox="0 0 461 640">
<g id="icomoon-ignore">
</g>
<path fill="#f45f31" d="M115.526 0s143.724 146.456 2.084 304.28l-3.959-8.844s-23.36-42.83-56.791-66.213c0 0 6.529 48.201-21.438 82.627s-69.037 158.981 13.266 253.278c0 0 54.429 67.51 142.567 74.247 85.499 6.529 174.469-39.126 211.952-84.92 0 0 48.989-54.591 55.564-124.717 8.798-92.745-12.733-118.304-12.733-118.304-11.414 25.652-29.055 47.044-48.201 64.454-0.092 0 23.059-298.122-282.309-375.887z"></path>
<path fill="#f4a031" d="M184.749 338.058s46.951 66.815-19.007 119.647l-0.972-3.728s-6.39-18.359-18.012-29.703c0 0-0.556 19.354-13.891 31.046s-37.459 57.879-11.252 100.362c0 0 16.97 30.097 51.165 38.431 33.153 8.126 71.075-4.005 88.786-19.563 0 0 23.151-17.989 29.958-45.377 8.913-36.001 2.686-47.299 2.686-47.299-6.164 8.949-13.881 16.358-22.829 21.99l-0.322 0.189s28.476-115.596-86.309-165.996z"></path>
</svg>
