<!-- Generated by IcoMoon.io -->
<svg version="1.1" xmlns="http://www.w3.org/2000/svg" width="574" height="640" viewBox="0 0 574 640">
<g id="icomoon-ignore">
</g>
<path fill="#ade1e5" d="M573.343 38.223l-91.595 174.334-106.045 426.511c0 0.699-0.466 1.166-1.166 1.166s-1.166-0.466-1.166-1.166l-54.304-297.392-68.754-114.202c-0.699-1.166-2.331-1.631-3.496-0.933-0.233 0.233-0.699 0.466-0.933 0.933l-35.193 55.237-46.147 144.268c-0.466 1.166-1.864 1.631-3.030 1.166-0.466-0.233-0.933-0.699-1.166-1.166l-83.671-279.213-71.085-72.717c-13.052-13.518-0.933-34.261 16.314-34.027 37.291 0.233 86.234 10.022 124.458 20.976 70.386 20.044 161.049-43.351 262.899-30.532 99.752 12.819 164.079 6.759 164.079 6.759z"></path>
<path fill="#eaffff" d="M573.343 38.223l-124.457 151.726c-3.496 4.428-5.827 9.556-7.225 14.916l-58.499 243.321c-0.699 3.030-3.729 4.661-6.526 3.962-2.098-0.466-3.729-2.331-4.195-4.428l-28.9-156.388c-0.699-4.195-2.564-8.391-4.894-11.886l-79.709-111.639c-1.631-2.331-5.128-3.030-7.458-1.398l-54.771 36.824c-5.127 3.496-8.856 8.391-10.954 14.45l-21.675 67.823c-0.933 2.797-3.962 4.661-6.759 3.729-1.864-0.466-3.263-1.864-3.729-3.729l-44.516-149.162c-2.331-7.691-7.225-13.984-13.984-18.179l-95.091-55.47c-0.233-2.331 0-4.661 0.699-6.759 1.398-5.361 5.128-10.022 10.255-12.352 15.149-7.924 81.107-20.743 159.651-5.827 48.477 9.323 170.371-48.944 236.796-35.892 83.671 16.547 139.141 24.938 161.049 28.201 3.496 0.466 5.827 3.729 5.361 7.225-0.233 0.233-0.233 0.699-0.466 0.932z"></path>
</svg>
