<!-- Generated by IcoMoon.io -->
<svg version="1.1" xmlns="http://www.w3.org/2000/svg" width="536" height="640" viewBox="0 0 536 640">
<g id="icomoon-ignore">
</g>
<path fill="#a0ce3e" d="M44.993 523.156c-61.062-147.604-8.494-298.192 87.461-383.587s339.283-136.586 399.656-139.569c1.836 0 3.443 1.378 3.443 3.214 0 1.147-0.459 2.296-1.607 2.984-65.194 39.484-118.451 162.754-130.846 312.195-17.676 213.946-273.63 218.307-301.176 217.848-1.378 0-2.754 0.918-3.214 2.296-8.264 29.383 2.984 77.131 4.591 92.511 1.607 14.462-39.713 9.412-44.534-1.836-2.525-6.657-13.773-105.825-13.773-106.054z"></path>
<path fill="#8bb737" d="M534.175 3.214c2.296-0.689 0.229-3.214-1.836-3.214-269.728 0.229-664.792 191.679-488.723 521.32 0.918 1.836 1.377 2.066 1.377 2.066-21.808-336.298 410.445-496.298 489.183-520.172z"></path>
</svg>
