<?xml version="1.0" encoding="UTF-8"?>
<svg id="Layer_1" xmlns="http://www.w3.org/2000/svg" version="1.1" viewBox="0 0 342.4 336">
  <!-- Generator: Adobe Illustrator 29.7.1, SVG Export Plug-In . SVG Version: 2.1.1 Build 8)  -->
  <path fill="#000"
    d="M299.7,15.2c5.4,6.2,15.6,23.8,19.8,31.7,18,33.6,24.8,69.9,22.5,108-1.4.1-1.6-2.4-2-3.5-3.2-9.5-5.6-19.4-9.2-28.8-8.3-21.3-20.5-41.5-35.5-58.8-3.5-2.1-10.4,0-12.1-1.1s-4-7.4-5.3-9.2c-5.9-7.9-13.2-15.6-22.8-18.7,23.6,37.5,19.7,86.5,17,129-2.8.5-1.6-.7-2.2-2.2-7.9-19.8-13.2-42.6-21-63-3.9-10.3-8.2-21.2-13.4-30.7-2.6-.7-11.5,7.7-13.9,9.9-68.6,62.5-68.6,129.7.5,191.5,3.8,3.4,15,13.4,19.5,13.6l41.5-88.1c-3.7,37.3-5.6,75.5-18.5,111l-9.5,18c4.7-2.8,9.3-6.4,13-10.5,3.3-3.8,12.9-21.3,14-22,3.5-2.1,10.5,3.3,14.9-2.1,1.8-2.2,5.8-11.4,7.3-14.7,10.7-23,16.7-47.3,24.8-71.2.4-1.1.6-3.6,2-3.5.5,30.1.4,59.5-5.5,89-5.7,28.5-8.1,41.9-40,46-66.1,8.4-152.1-29.7-205.8-66.2-9.8-6.6-37-25-41.9-34.1-15.3-29,7.3-82-8.8-102.2s-19.2-6-29-6C2.8,91.4,17.6,55.7,47.7,36.1c27-17.5,61-23.8,90.7-9.2,34.9-15.6,132.4-44.9,161.3-11.7ZM60,65.9h20.5c6.6,0,23.1-5.5,29.2-8.8s17.4-12.8,19.2-17.8-.4-1.2-1.2-1.6c-16.6-9.5-39.8-5.7-56.5,1.5-1.9,9.7-6.8,18.2-11.2,26.8ZM204,75.9c-38.6,10.1-100.6,38-108.8,81.7s-.8,16.7-.2,25.3l-4.7-9.8c-5.3-18.3-2.5-33.6,4.5-50.9.9-2.3,6.2-10.7,5.1-12.2l-11.9-5.1c-8.9,18-15.7,35.8-14,56.5,4.7,57.3,81.2,92.2,128.5,108.5l-22.3-26.7c-27.6-38.7-32.3-79.7-9.7-122.3,8.8-16.7,21.1-31,33.5-45Z" />
</svg>