<?xml version="1.0" encoding="UTF-8"?>
<svg id="Layer_1" xmlns="http://www.w3.org/2000/svg" version="1.1" viewBox="0 0 342 293.1">
  <!-- Generator: Adobe Illustrator 29.7.1, SVG Export Plug-In . SVG Version: 2.1.1 Build 8)  -->
  <path fill="#f7d857"
    d="M342,55.1v148.5l-111.4,29.4c-1.4-.4-3.2-7.5-4.4-9.6-25-45.4-104.8-20.2-86.2,33.7L.5,293.1l-.5-10c11.9-.9,23.5-8.5,30.9-17.6,22.4-27.5,3.8-60.2-31-52.5v-70l49-12c-1,14.6,10.7,26.4,24.6,28.9,27.2,4.9,58.9-19.9,51.4-48.9l217-56ZM268.8,150.4c-38.2,5.6-24.6,61.5,15,49,31.2-9.8,19.7-54.1-15-49Z" />
  <path fill="#ccb34c"
    d="M330,44.1l-213,54.5c-22.3-19.5-53.3-4.1-66.7,18.3L1,129.1,89,54.6c12.6,7.4,24.5,10.1,39.1,7.1,28.1-5.7,45.8-35.7,18-55.1,0-.4,6-5.1,6.7-5.3,2.1-.6,16.2-1.2,19.7-1.3,45.9-.9,109.3,9.2,147.7,35.4,1.2.8,10.6,7.6,9.9,8.6Z" />
  <path fill="#ccb34c"
    d="M66.3,141.8c-10.1-10.1-.4-26.2,9.3-32.5,22.8-14.9,50.2,2,30.8,25.8s-29.4,17.5-40.1,6.7Z" />
  <path fill="#ccb34c"
    d="M215,231.1c-22.8-3-46.2-.6-62.5,17-3.7-5.8-.9-15.3,3.1-20.9,14.3-19.9,47.7-17.7,59.4,3.9Z" />
  <path fill="#ccb34c"
    d="M268.7,164.3c6.6-1.4,17.9.3,19.2,8.3,2.9,18.1-27.1,19.2-28.8,3.7s4.6-11,9.6-12Z" />
</svg>