<?xml version="1.0" encoding="UTF-8"?>
<svg id="Layer_1" xmlns="http://www.w3.org/2000/svg" version="1.1" viewBox="0 0 340.3 332.2">
  <!-- Generator: Adobe Illustrator 29.7.1, SVG Export Plug-In . SVG Version: 2.1.1 Build 8)  -->
  <path fill="#000"
    d="M161.2.5c68-7.7,98.3,79.9,98.3,134.2,0,55.5-34.5,152.4-106.6,132.5-54.9-15.1-74.3-96-71.5-145.5C83.9,77.8,110.4,6.3,161.2.5ZM159,110.6c-15.6-14.8-39.7-15.8-57.7-4.8l5.1,12.4c16.2-10,35.3-8,47.6,6.9l10.3-8.4c-2.3-1.4-3.7-4.6-5.3-6.1ZM234.4,118.2l4.6-12c-20.4-12.7-47.9-8.8-62.5,10.5l9.5,9.5c12.8-16.3,30.9-17,48.5-8ZM165.2,147.5c-44.7,4.2-66.7,57.4-37.3,91.7,27.8,32.6,82,21.8,95-19,12.1-37.9-18.1-76.4-57.7-72.7Z" />
  <path fill="#000"
    d="M207.4,332.2l32.5-23c59.2-53.9,86.3-138.3,75.4-217.3l-4.3-22.7c67.9,97.7,12.1,238.2-103.5,263Z" />
  <path fill="#000"
    d="M133.4,331.2c-1.1,2.3-6.8-.2-8.8-.8C13.6,299.6-35.9,165.8,28.9,70.2l-6.5,44.5c-2.5,83.5,34.7,176.2,111,216.5Z" />
  <path fill="#000"
    d="M143.4,288.2c.2,1.8-2.2,1-3.3.8-9.3-1.8-23.4-8.5-31.7-13.4-61.2-36.4-79.7-118.2-39.6-177.4l-4.5,26.5c-4.2,62.5,22.5,132.4,79,163.5Z" />
  <path fill="#000"
    d="M195.4,290.2c7.1-5.5,15.2-9.6,22-15.5,40.5-34.7,60.9-91.2,59-144l-4.5-31.5c48.7,71.8,7.4,172.5-76.5,191Z" />
</svg>