<?xml version="1.0" encoding="UTF-8"?>
<svg id="Layer_1" xmlns="http://www.w3.org/2000/svg" version="1.1" viewBox="0 0 345.8 350.3">
  <!-- Generator: Adobe Illustrator 29.7.1, SVG Export Plug-In . SVG Version: 2.1.1 Build 8)  -->
  <path fill="#000"
    d="M0,257v-39c72.4-20.1,148.1-42.5,213.7-79.8,34.2-19.5,77.3-48.7,81.8-91.2,19.6-11.8,35.7-27.7,48-47,6.9,38.2-1.8,77.3-24.3,108.7-16.7,23.3-31.1,32.9-42,62s-13.7,41.6-13.3,51.7c.8,23.6,28.3,50.9,30.9,76.1,5,47.2-65.8,47.5-64.9,5.9.5-23.2,22.8-49.9,28.6-73.5,2-8,2.6-10-1.7-17.3-20.6-35.6-93.8-24.1-92.9,19.8s18.2,20.1,6.6,34.6c-6.8,8.5-19.2,9.6-27,2-14.9-14.5,13.8-28.7,2-42-9.9-11.2-37.1-2.2-48.6,3.5-18.5,9.3-44.6,33.2-45.8,55.3-.8,14.9,17,33.1,16.8,48.7s-22,20.1-31.4,8.4,12.5-38,13.4-54.6-6.4-25.1-13-30.8c-12-10.2-23.7-5.6-36.9-1.6Z" />
  <path fill="#000"
    d="M0,204v-51.5c7.9-3.7,17.4-4.6,26-7,43-12.1,88.8-31.7,128-53s31-20.3,36.9-22.1,15.5.8,20.6.6c6.6-.2,15-1.4,21.7-2.3,16.2-2.4,31.6-7.4,46.8-13.2-12.4,36.4-53.5,60.9-86,78C133.2,165.6,66,185.5,0,204Z" />
  <path fill="#000"
    d="M320,130l5.5,18c5.1,14.4,24.6,38.8,11,53s-36.7,6.1-37.6-12.5c-.9-19.8,19.8-38.1,21.1-58.5Z" />
</svg>