<?xml version="1.0" encoding="UTF-8"?>
<svg id="Layer_1" xmlns="http://www.w3.org/2000/svg" version="1.1" viewBox="0 0 671.6 567.1">
  <!-- Generator: Adobe Illustrator 29.7.1, SVG Export Plug-In . SVG Version: 2.1.1 Build 8)  -->
  <path fill="#000"
    d="M541.6,0l-24,172c32.4-11.8,64.8-23.9,97.5-35s26.3-9.5,39-13c2.5-.7,10.6-4.1,10.6.5l-114,124,121,45c-10.5,7.3-24.3,11.2-36.5,15.5-32.9,11.7-66.3,22.2-99.5,33l83.2,133.3c1,3.3,6,7.8,2.3,10.7l-148.5-76c-1.1,10.5-.5,21-1,31.5-1.6,36.9-2.3,74-4,111s-.6,9.6-1,13-4.9-.4-5.8-2.2l-70.2-123.3c-1.3-.9-5.4,3.9-6.5,5-9.8,10.2-18.3,21.8-28,32s-12.7,13.9-14.5,12v-2.4c0,0,43.2-110.8,43.2-110.8l3.3-3.7,43,62,9.1-78.9,81.4,35-41-69.5c0-2.4,2.9-3.5,4.7-4.3,13.9-5.9,34-10.1,49.1-14.9,7.1-2.3,14.5-4.4,21.2-7.8l-64.1-25.1c-.6-3,6-11,8.1-13.8,9.3-12.3,21-24.1,30.9-36.1.8-1,6.8-7.8,6-8.5-7.9-.1-54.7,20.1-58.1,17.6s-1-2.7-1-4c1-21.6,5.1-45.2,7-67.1,0-1,0-2,0-3l-2-.5-43.5,55-19-37-25.4,48.3-4.1.7c3.7-28,10.7-55.6,14.8-83.7,2.9-20,4.6-40.2,7.2-60.3l34.5,67L537.5,1.4l4.1-1.4Z" />
  <path fill="#000"
    d="M.1,109.6h48c28.2,0,55.9-3.5,82-14.4,17.7-7.3,34.4-17,51.3-26.1,3.9-2.1,6.4-3.3,10.7-.4,41.3,28.2,87.2,41.6,137.3,40.8,14.6-.2,29.2,0,44.6,0v10.5c0,56.9-.8,114,.2,170.9.9,54-15.3,101.9-46.5,145.2-36.3,50.4-83.3,88.7-136.4,120.1-2.1,1.2-6,1.5-7.9.3-61-36.2-114.1-80.7-151.2-142.3C10.2,377.9.6,338,.2,295.8c-.4-58.3,0-116.7,0-175v-11.2H.1Z" />
</svg>