<?xml version="1.0" encoding="UTF-8"?>
<svg id="Layer_1" xmlns="http://www.w3.org/2000/svg" version="1.1" viewBox="0 0 201.2 149.8">
  <!-- Generator: Adobe Illustrator 29.7.1, SVG Export Plug-In . SVG Version: 2.1.1 Build 8)  -->
  <path fill="#000"
    d="M48.2,96.3c-1.2,4.1-3.3-.1-3.7-.5-2.1-1.7-12.7-11.3-14.3-10,2.9,4.6,10.9,18.2,4.4,21.9-2.6,1.4-6.2.4-7.4,3.1l36.5,13c3.8.6-1.3-5.6-1.5-7,1.7-1.3,8.2,5,10.3,6.2,7.7,4.5,20,12,28.7,9.4l32-17.5c1.2,1-9.7,8.3-10.3,8.9-1,1.1-.8,1.6-.7,3,5.1-1.1,19.8-2.7,23.1,1.5s-10.1,7-11.1,10.5l24,11c.2-3.2-2.3-5.1-2.1-8.5.5-8.8,21.4-10.4,28.1-11.5l-18.7-4.8c-6.9-3.4-1.5-11.4,1.3-16.1,9.1-15.8,23.5-27.9,34.4-42.1-5.2,2-8.7,6.2-14,8.5-3.5,1.5-11,2.4-12,3-2.9,1.7-5.7,17-14.6,17.5-7.7.5-4.3-16.3-3.9-21s1.5-2.4-1.1-2l-8,20c-2.1-1.3-.9-2.3-.9-3.8.4-14.2,2.1-23.8,1.3-38.7-.2-3,1.6-17-2.3-16.5l-43.1,21.9-7,53c-1.7-1.1-1.4-2.7-1.6-4.4-1.1-14.8,1.1-30.6-1.4-45.6-7.8-6.1-16.8-10.4-24.8-16.2s-5.6-3.2-5.7-5.8l33.4,14,49.6-21.5c.3-1.3-4.3-4.4-5.5-5.4-5.3-4.3-11.6-8.9-17.1-12.9s-10.9-8.4-13.9-10.1-6.5-.5-10.3.5l-43.9,21.6c-4.4,4-2.3,21.3-4.8,21.8L13.5,22.1C.3,18.6-2.7,35.4,2.2,44.3c14.1,11.5,30.8,19.9,46,30l.8,1.1c.2.9-.9,1.6-.9,1.9,0,4.2.8,16.1,0,19Z" />
  <path fill="#000"
    d="M187.7,21.8c-1.1-.2-17.3,12-17.9,13-1.3,1.9-4.4,16.3-4.3,18.7s.3,1.5,1.3,2.2c2.8-2.5,8.6-2,10.9-5s8.5-21.2,10.6-26.4,1.5-2.1-.6-2.5Z" />
  <path fill="#000" d="M190.2,107.8c-5.7.7-11.1,1.1-13,7.5,5.4,4.9,12-2.2,13-7.5Z" />
</svg>