<!-- Generated by IcoMoon.io -->
<svg version="1.1" xmlns="http://www.w3.org/2000/svg" width="996" height="1024" viewBox="0 0 996 1024">
<g id="icomoon-ignore">
</g>
<path fill="#ab31c9" d="M496.26 601.438c0 0-54.441-34.072-28.516-128.139 15.184-55.552 81.846-112.584 170.728-88.142 115.918 32.22 158.137 191.097 49.996 335.531 0 0-134.064 178.135-360.344 77.031 0 0-147.026-67.032-170.728-234.057-28.146-199.245 109.251-337.383 109.251-337.383s145.545-179.617 391.453-125.546c252.574 55.922 341.086 277.017 337.753 411.452-2.963 126.658-37.034 294.053-224.428 426.265-199.615 140.731-442.931 84.068-560.7 0-88.512-62.958-207.022-181.839-210.725-391.453-3.703-206.281 111.103-381.454 249.241-471.077 87.771-57.033 228.872-84.438 334.050-73.698 15.925 2.222 14.073 22.221-0.37 21.85-9.629-1.111-177.765-1.481-326.273 118.51-120.362 97.4-174.061 262.944-164.062 379.602 8.888 106.289 46.663 255.907 238.131 339.235s455.152-42.96 482.558-280.35c26.294-224.428-159.988-278.498-240.353-267.758-96.66 12.592-185.912 71.106-185.912 198.875 4.814 62.588 51.848 112.214 109.251 89.253z"></path>
<path fill="#6d219e" d="M496.26 601.438c0 0-54.070-41.849-24.813-98.511 38.145-73.328 117.769-43.701 138.138-6.666 29.257 52.959 12.962 155.174-75.92 184.431 0 0-81.105 28.516-158.137-21.85 0 0-74.069-49.626-76.661-146.656-1.111-37.775 5.555-75.18 19.258-109.992 24.443-60.366 71.476-108.511 131.102-134.435 56.292-24.813 144.434-48.145 240.353-15.184 155.174 53.7 191.468 182.209 197.763 259.611 5.925 72.217-18.888 245.908-162.581 345.901-169.988 118.51-363.307 99.622-481.447 15.554-88.142-62.958-183.32-141.842-187.024-351.456-3.703-206.281 98.511-344.79 241.464-429.599 89.993-53.329 203.689-87.031 289.238-80.365 11.11 0.741 7.777 12.221-3.703 12.221-9.629-1.111-177.765-1.481-326.273 118.51-120.732 97.4-174.432 262.944-164.803 379.602 8.888 106.289 46.663 255.907 238.131 339.235s455.152-42.96 482.558-280.35c26.294-224.428-159.618-277.017-240.353-267.758-91.475 10.37-177.024 65.551-185.172 180.357-1.481 15.925 0.37 31.85 4.444 47.034 15.184 47.404 55.922 79.624 104.437 60.366z"></path>
</svg>
