<?xml version="1.0" encoding="UTF-8"?>
<svg id="Layer_1" xmlns="http://www.w3.org/2000/svg" version="1.1" viewBox="0 0 786 1024">
  <!-- Generator: Adobe Illustrator 29.7.1, SVG Export Plug-In . SVG Version: 2.1.1 Build 8)  -->
  <defs>
    <style>
      .st0 {
        fill: #6c7cd8;
      }

      .st1 {
        fill: #2b3eaf;
      }
    </style>
  </defs>
  <path class="st1" d="M784.6,868.7c2.8,8.9,1.2,14.2-6.8,20.3-83.5,62.2-174.7,108.5-277.6,129.1-8.9,1.8-17.9,3.1-26.8,4.6-29.3-78-31.7-393.8-3.7-495.8,71.8,9.5,138.7,33,204.6,65.3.6-6.2,1.5-10.2,1.5-14.5,0-44.1-.3-88.4.3-132.5.3-11.1-3.7-15.1-14.2-16.9-89-16.8-178.5-27.7-268.9-28.6-18.9-.2-37.8,0-56.8.8-68.7,2.8-136.8,11.7-203.4,30.8v161.2c67.2-33.6,135.6-58.9,210.5-66.2,29,167.3,35.1,332.8-2.2,498C240.9,1018.8,95.5,957.7,0,881c3.4-9.9,7.1-20.3,10.8-30.8,21.6-61.6,43.1-123.6,54.2-188.6,12-71.2,5.5-141.1-15.1-209.5-14.5-49-32-97.1-47.5-145.8-1.8-6.2-1.5-16,2.2-20.3,36.1-41.6,72.7-82.6,109.4-123,2.5-2.8,8.3-5.2,11.7-4,57.6,17.6,114.9,35.7,170.7,53.6-20,22.2-40.4,44.7-61.3,67.8,52.5,16.4,105.2,32.8,157.9,49.2,56.2,17.5,112.5,35,168.8,52.5.6-1.2,1.2-2.1,1.8-3.4-56.1-42.8-112.2-85.5-170.6-130-1-.7-1.9-1.5-2.9-2.2,1-.8,1.9-1.7,2.9-2.5,16.6-14.5,33-28.9,50.4-44.6-17-13.2-33.8-26.2-50.4-39.1-45-34.9-89.2-69.2-136-105.4,45.6-19.1,87.8-37,130-54.2C388.7,0,390.8,0,393,.4c3,.5,6.2,1.7,8.8,2.7,124.8,46.5,235.7,114.9,326.6,213.2,19.7,21.3,36.7,45.3,53.9,69,3.7,5.2,4.6,14.5,3.1,20.7-14.8,60.1-32.7,119.2-45.6,179.7-19.4,90.6-11.1,180.6,12.9,269.3,10.2,37.9,21,75.8,31.7,113.7h.2Z"/>
  <path class="st0" d="M784.6,868.7c2.8,8.9,1.2,14.2-6.8,20.3-83.5,62.2-174.7,108.5-277.6,129.1-8.9,1.8-17.9,3.1-26.8,4.6-29.3-78-31.7-393.8-3.7-495.8,71.8,9.5,138.7,33,204.6,65.3.6-6.2,1.5-10.2,1.5-14.5,0-44.1-.3-88.4.3-132.5.3-11.1-3.7-15.1-14.2-16.9-89-16.8-178.5-27.7-268.9-28.6v-70.1c56.2,17.5,112.5,35,168.8,52.5.6-1.2,1.2-2.1,1.8-3.4-56.1-42.8-112.2-85.5-170.6-130v-4.7c16.6-14.5,33-28.9,50.4-44.6-17-13.2-33.8-26.2-50.4-39.1V.3c3,.5,6.2,1.7,8.8,2.7,124.8,46.5,235.7,114.9,326.6,213.2,19.7,21.3,36.7,45.3,53.9,69,3.7,5.2,4.6,14.5,3.1,20.7-14.8,60.1-32.7,119.2-45.6,179.7-19.4,90.6-11.1,180.6,12.9,269.3,10.2,37.9,21,75.8,31.7,113.7h.2Z"/>
</svg>